<?xml version="1.0" encoding="UTF-8" standalone="no"?>
<!DOCTYPE svg PUBLIC "-//W3C//DTD SVG 1.1//EN"
 "http://www.w3.org/Graphics/SVG/1.1/DTD/svg11.dtd">
<!-- Generated by graphviz version 5.0.0 (20220707.1540)
 -->
<!-- Title: StorageDiagram Pages: 1 -->
<svg width="1359pt" height="338pt"
 viewBox="0.00 0.00 1359.00 338.20" xmlns="http://www.w3.org/2000/svg" xmlns:xlink="http://www.w3.org/1999/xlink">
<g id="graph0" class="graph" transform="scale(1 1) rotate(0) translate(4 334.2)">
<title>StorageDiagram</title>
<polygon fill="white" stroke="transparent" points="-4,4 -4,-334.2 1355,-334.2 1355,4 -4,4"/>
<!-- 4 -->
<g id="node1" class="node">
<title>4</title>
<polygon fill="#f2f2f2" stroke="black" points="0,-106.5 0,-329.7 753.71,-329.7 753.71,-106.5 0,-106.5"/>
<text text-anchor="middle" x="376.86" y="-313.1" font-family="Courier New" font-size="14.00">LoanContract &lt;&lt;Contract&gt;&gt;</text>
<polyline fill="none" stroke="black" points="0,-304.9 753.71,-304.9 "/>
<text text-anchor="middle" x="24.8" y="-288.3" font-family="Courier New" font-size="14.00">slot</text>
<polyline fill="none" stroke="black" points="0,-280.1 49.61,-280.1 "/>
<text text-anchor="middle" x="24.8" y="-263.5" font-family="Courier New" font-size="14.00">0</text>
<polyline fill="none" stroke="black" points="0,-255.3 49.61,-255.3 "/>
<text text-anchor="middle" x="24.8" y="-238.7" font-family="Courier New" font-size="14.00">1</text>
<polyline fill="none" stroke="black" points="0,-230.5 49.61,-230.5 "/>
<text text-anchor="middle" x="24.8" y="-213.9" font-family="Courier New" font-size="14.00">2</text>
<polyline fill="none" stroke="black" points="0,-205.7 49.61,-205.7 "/>
<text text-anchor="middle" x="24.8" y="-189.1" font-family="Courier New" font-size="14.00">3</text>
<polyline fill="none" stroke="black" points="0,-180.9 49.61,-180.9 "/>
<text text-anchor="middle" x="24.8" y="-164.3" font-family="Courier New" font-size="14.00">4</text>
<polyline fill="none" stroke="black" points="0,-156.1 49.61,-156.1 "/>
<text text-anchor="middle" x="24.8" y="-139.5" font-family="Courier New" font-size="14.00">5</text>
<polyline fill="none" stroke="black" points="0,-131.3 49.61,-131.3 "/>
<text text-anchor="middle" x="24.8" y="-114.7" font-family="Courier New" font-size="14.00">6</text>
<polyline fill="none" stroke="black" points="49.61,-106.5 49.61,-304.9 "/>
<text text-anchor="middle" x="401.66" y="-288.3" font-family="Courier New" font-size="14.00">type: &lt;inherited contract&gt;.variable (bytes)</text>
<polyline fill="none" stroke="black" points="49.61,-280.1 753.71,-280.1 "/>
<text text-anchor="middle" x="401.35" y="-263.5" font-family="Courier New" font-size="14.00">DebtTermIndexer.DebtTermMap: DebtTerms.__packedDebtTerms (32)</text>
<polyline fill="none" stroke="black" points="49.61,-255.3 753.71,-255.3 "/>
<text text-anchor="middle" x="149.82" y="-238.7" font-family="Courier New" font-size="14.00">unallocated (12)</text>
<polyline fill="none" stroke="black" points="250.03,-230.5 250.03,-255.3 "/>
<text text-anchor="middle" x="501.46" y="-238.7" font-family="Courier New" font-size="14.00">IAnzaToken: DebtBookAccessController._anzaToken (20)</text>
<polyline fill="none" stroke="black" points="49.61,-230.5 753.71,-230.5 "/>
<text text-anchor="middle" x="124.82" y="-213.9" font-family="Courier New" font-size="14.00">unallocated (12)</text>
<polyline fill="none" stroke="black" points="200.03,-205.7 200.03,-230.5 "/>
<text text-anchor="middle" x="476.87" y="-213.9" font-family="Courier New" font-size="14.00">ICollateralVault: DebtBookAccessController._collateralVault (20)</text>
<polyline fill="none" stroke="black" points="49.61,-205.7 753.71,-205.7 "/>
<text text-anchor="middle" x="401.23" y="-189.1" font-family="Courier New" font-size="14.00">uint256: DebtBook.totalDebts (32)</text>
<polyline fill="none" stroke="black" points="49.61,-180.9 753.71,-180.9 "/>
<text text-anchor="middle" x="401.35" y="-164.3" font-family="Courier New" font-size="14.00">mapping(address=&gt;mapping(uint256=&gt;DebtMap[])): DebtBook.__debtMaps (32)</text>
<polyline fill="none" stroke="black" points="49.61,-156.1 753.71,-156.1 "/>
<text text-anchor="middle" x="401.24" y="-139.5" font-family="Courier New" font-size="14.00">mapping(bytes32=&gt;RoleData): AccessControl._roles (32)</text>
<polyline fill="none" stroke="black" points="49.61,-131.3 753.71,-131.3 "/>
<text text-anchor="middle" x="135.32" y="-114.7" font-family="Courier New" font-size="14.00">unallocated (12)</text>
<polyline fill="none" stroke="black" points="221.03,-106.5 221.03,-131.3 "/>
<text text-anchor="middle" x="487.37" y="-114.7" font-family="Courier New" font-size="14.00">address: ManagerAccessController._loanTreasurerAddress (20)</text>
</g>
<!-- 1 -->
<g id="node2" class="node">
<title>1</title>
<polygon fill="#f2f2f2" stroke="black" points="789.71,-236.9 789.71,-311.3 1351,-311.3 1351,-236.9 789.71,-236.9"/>
<text text-anchor="middle" x="1070.36" y="-294.7" font-family="Courier New" font-size="14.00">DebtTermIndexer.DebtTermMap &lt;&lt;Struct&gt;&gt;</text>
<polyline fill="none" stroke="black" points="789.71,-286.5 1351,-286.5 "/>
<text text-anchor="middle" x="814.52" y="-269.9" font-family="Courier New" font-size="14.00">slot</text>
<polyline fill="none" stroke="black" points="789.71,-261.7 839.32,-261.7 "/>
<text text-anchor="middle" x="814.52" y="-245.1" font-family="Courier New" font-size="14.00">0</text>
<polyline fill="none" stroke="black" points="839.32,-236.9 839.32,-286.5 "/>
<text text-anchor="middle" x="1095.16" y="-269.9" font-family="Courier New" font-size="14.00">type: variable (bytes)</text>
<polyline fill="none" stroke="black" points="839.32,-261.7 1351,-261.7 "/>
<text text-anchor="middle" x="1095.16" y="-245.1" font-family="Courier New" font-size="14.00">mapping(uint256=&gt;bytes32): DebtTermMap.packedDebtTerms (32)</text>
</g>
<!-- 4&#45;&gt;1 -->
<g id="edge1" class="edge">
<title>4:2&#45;&gt;1</title>
<path fill="none" stroke="black" d="M753.71,-268.1C762.18,-268.1 770.78,-268.12 779.46,-268.16"/>
<polygon fill="black" stroke="black" points="779.66,-271.66 789.68,-268.22 779.7,-264.66 779.66,-271.66"/>
</g>
<!-- 2 -->
<g id="node3" class="node">
<title>2</title>
<polygon fill="#f2f2f2" stroke="black" points="907.33,-118.5 907.33,-217.7 1233.38,-217.7 1233.38,-118.5 907.33,-118.5"/>
<text text-anchor="middle" x="1070.36" y="-201.1" font-family="Courier New" font-size="14.00">DebtMap &lt;&lt;Struct&gt;&gt;</text>
<polyline fill="none" stroke="black" points="907.33,-192.9 1233.38,-192.9 "/>
<text text-anchor="middle" x="940.54" y="-176.3" font-family="Courier New" font-size="14.00">offset</text>
<polyline fill="none" stroke="black" points="907.33,-168.1 973.74,-168.1 "/>
<text text-anchor="middle" x="940.54" y="-151.5" font-family="Courier New" font-size="14.00">0</text>
<polyline fill="none" stroke="black" points="907.33,-143.3 973.74,-143.3 "/>
<text text-anchor="middle" x="940.54" y="-126.7" font-family="Courier New" font-size="14.00">1</text>
<polyline fill="none" stroke="black" points="973.74,-118.5 973.74,-192.9 "/>
<text text-anchor="middle" x="1103.56" y="-176.3" font-family="Courier New" font-size="14.00">type: variable (bytes)</text>
<polyline fill="none" stroke="black" points="973.74,-168.1 1233.38,-168.1 "/>
<text text-anchor="middle" x="1103.26" y="-151.5" font-family="Courier New" font-size="14.00">uint256: debtId (32)</text>
<polyline fill="none" stroke="black" points="973.74,-143.3 1233.38,-143.3 "/>
<text text-anchor="middle" x="1103.56" y="-126.7" font-family="Courier New" font-size="14.00">uint256: collateralNonce (32)</text>
</g>
<!-- 4&#45;&gt;2 -->
<g id="edge2" class="edge">
<title>4:8&#45;&gt;2</title>
<path fill="none" stroke="black" d="M753.71,-168.1C800.17,-168.1 850.48,-168.1 896.99,-168.1"/>
<polygon fill="black" stroke="black" points="897.16,-171.6 907.16,-168.1 897.16,-164.6 897.16,-171.6"/>
</g>
<!-- 3 -->
<g id="node4" class="node">
<title>3</title>
<polygon fill="#f2f2f2" stroke="black" points="877.93,-0.5 877.93,-99.7 1262.79,-99.7 1262.79,-0.5 877.93,-0.5"/>
<text text-anchor="middle" x="1070.36" y="-83.1" font-family="Courier New" font-size="14.00">RoleData &lt;&lt;Struct&gt;&gt;</text>
<polyline fill="none" stroke="black" points="877.93,-74.9 1262.79,-74.9 "/>
<text text-anchor="middle" x="911.13" y="-58.3" font-family="Courier New" font-size="14.00">offset</text>
<polyline fill="none" stroke="black" points="877.93,-50.1 944.34,-50.1 "/>
<text text-anchor="middle" x="911.13" y="-33.5" font-family="Courier New" font-size="14.00">0</text>
<polyline fill="none" stroke="black" points="877.93,-25.3 944.34,-25.3 "/>
<text text-anchor="middle" x="911.13" y="-8.7" font-family="Courier New" font-size="14.00">1</text>
<polyline fill="none" stroke="black" points="944.34,-0.5 944.34,-74.9 "/>
<text text-anchor="middle" x="1103.56" y="-58.3" font-family="Courier New" font-size="14.00">type: variable (bytes)</text>
<polyline fill="none" stroke="black" points="944.34,-50.1 1262.79,-50.1 "/>
<text text-anchor="middle" x="1103.56" y="-33.5" font-family="Courier New" font-size="14.00">mapping(address=&gt;bool): members (32)</text>
<polyline fill="none" stroke="black" points="944.34,-25.3 1262.79,-25.3 "/>
<text text-anchor="middle" x="1103.45" y="-8.7" font-family="Courier New" font-size="14.00">bytes32: adminRole (32)</text>
</g>
<!-- 4&#45;&gt;3 -->
<g id="edge3" class="edge">
<title>4:11&#45;&gt;3</title>
<path fill="none" stroke="black" d="M753.71,-144.1C776.03,-144.1 770.02,-119.59 789.71,-109.1 814,-96.16 840.89,-86.05 868.11,-78.17"/>
<polygon fill="black" stroke="black" points="869.06,-81.54 877.75,-75.47 867.18,-74.79 869.06,-81.54"/>
</g>
</g>
</svg>
